<?xml version="1.0" encoding="utf-8"?>
<!-- Generator: Adobe Illustrator 22.1.0, SVG Export Plug-In . SVG Version: 6.00 Build 0)  -->
<svg version="1.1" id="Layer_1" xmlns="http://www.w3.org/2000/svg" xmlns:xlink="http://www.w3.org/1999/xlink" x="0px" y="0px"
	 viewBox="0 0 841.9 595.3" style="enable-background:new 0 0 841.9 595.3;" xml:space="preserve">
<style type="text/css">
	.st0{fill:#303030;}
	.st1{fill:#EF1424;}
</style>
<g>
	<path class="st0" d="M839.8,457.9c-1.2,3.3-0.7,6.7-1.3,10.1c-0.4,2.7-0.9,4.1-4.3,4.1c-31.2-0.2-62.5,0-93.7-0.2
		c-3.1,0-3.6,1-3.6,3.8c0,7.6,0.1,15.1,2.7,22.4c4.8,13.2,15.7,21.1,28.5,20.6c12.4-0.5,22.6-6.1,31-15c3.8-4,6.7-8.6,9-13.6
		c0.7-1.4,1.2-1.8,2.9-1.6c5.6,0.7,11.3,1.3,17,1.5c3.2,0.1,3.2,1.3,2.2,3.6c-4.1,10.4-10.8,18.9-18.9,26.4
		c-10.4,9.7-22.7,15.6-36.8,16.9c-29.2,2.7-54.8-11.8-59.7-44.4c-4.4-29.4,4.1-55.3,23.7-77.3c9.7-10.9,22.5-17.1,37.1-19.2
		c12.1-1.7,24-1.2,35.2,4.1c14.7,6.9,23.3,18.7,26.9,34.4c0.8,3.5,1.4,7,2,10.6C839.8,449.3,839.8,453.6,839.8,457.9z M779.3,454.5
		c12,0,23.9-0.1,35.9,0c2.3,0,3.1-0.6,3.1-3c0-3.5-0.3-6.9-0.7-10.3c-1.6-11.8-6.9-21.2-18.2-25.9c-11-4.6-21.8-3-32.1,2.5
		c-13.7,7.3-20.8,19.8-25.6,34c-0.7,2.2-0.4,2.8,2,2.8C755.6,454.4,767.4,454.5,779.3,454.5z"/>
	<path class="st0" d="M116.5,296.8c0.7-1.4,1.3-2.8,2-4.1c3.2-3.7,5.1-8.3,7.5-12.5c16.4-28.8,32.7-57.6,49-86.4
		c0.7-1.2,1.7-2.4,1.8-3.9c1.3-2.3,2.7-4.5,4-6.8c0.4-0.6,0.9-1.2,1.3-1.9c6.7-11.8,13.4-23.6,20.1-35.4c0.8-1.4,1.5-2.5,3.5-2.5
		c8.5,0.1,17,0.1,25.5,0c1.6,0,1.9,0.4,2.2,2c1.9,11.6,4,23.1,5.9,34.7c3.2,19.7,6.3,39.4,9.6,59c2.9,17.6,5.9,35.1,8.9,52.7
		c-0.1,0.4,0.1,0.6,0.4,0.7l0,0c0.1,1.6-0.2,3.3,0.6,4.8c0,0.7-0.1,1.4,0.1,2c1.7,10,3.3,20.1,5.1,30.1c0.3,1.6,0.2,2.2-1.6,2.2
		c-6.8-0.1-13.6-0.1-20.4,0c-1.3,0-1.8-0.2-2-1.8c-0.7-5.2-1.6-10.5-2.6-15.7c-1.2-6-1.7-12.2-3.4-18.2c-0.2-1.1-0.5-2.3-0.7-3.4
		c0.1-4.6-1.3-8.9-1.8-13.4c-0.2-1.6-0.7-2-2.2-2c-16.1,0.1-32.1,0.1-48.2,0.1c-1.4,0-2.7,0-4.1,0c-6.9,0-13.8-0.1-20.7-0.1
		c-0.9,0-1.7,0-2.2,1c-2.4,4.9-5.6,9.3-7.6,14.4c-0.6,1.1-1.2,2.2-1.8,3.3c-5.5,8.5-9.9,17.5-14.9,26.2c-1.8,3.1-2.8,7.4-5.4,8.9
		c-2.7,1.6-6.9,0.5-10.5,0.5c-5.4,0-10.8,0-16.6,0C103.7,319.6,110.1,308.2,116.5,296.8z M176.9,257.9c1.3,0,2.5,0,3.8,0
		c0.3,0.1,0.6,0.3,0.9,0.3c15.2,0,30.4-0.1,45.5-0.1c0.5,0.2,0.6-0.1,0.6-0.5c0.5-1.5-0.4-2.8-0.6-4.2c-1.8-12.2-3.6-24.4-5.5-36.5
		c-2.1-13.4-3.9-26.8-5.3-40.3c-0.4-4-0.1-8.2-1.1-12.8c-0.6,1.1-1,1.7-1.2,2.3c-5.5,13.6-12.5,26.5-19.6,39.3
		c-4.6,8.3-9,16.6-13.5,24.9c-1.5,2.7-3.1,5.4-4.6,8.1c-3.6,6.5-7.1,12.9-10.7,19.4c-0.1,0.5,0.1,0.7,0.6,0.5
		C169.7,258.1,173.3,258.7,176.9,257.9z"/>
	<path class="st0" d="M571.7,189.6c1.2,0,2.3,0.1,3.5,0.1c5.2,1.5,10.6,2.2,15.5,4.6c15.1,7.2,24,19.2,27.4,35.5
		c2.4,11.4,1.9,22.8,0.2,34.2c-0.3,2.1-1.1,2.4-2.9,2.4c-12.2-0.1-24.4,0-36.6,0c-1.2,0-2.5,0.1-3.7,0.1c-1.1,0-2.3,0-3.4,0
		c-16.1,0-32.2-0.1-48.3-0.1c-5.7,0-6.1,0-6.2,5.7c-0.2,7-0.1,14,3,20.5c0.6,1.6,1.2,3.2,1.8,4.8c7.1,12.7,18.1,17.5,31.5,15.3
		c6.7-1.1,13.2-3.5,18.3-8.4c1.6-0.6,2.7-1.8,3.9-2.9c1.8-1.3,3.4-2.9,4.7-4.7c0.9-1.3,1.8-2.7,2.7-4c2.5-2.2,3.7-5.2,5-8.1
		c0.7-1.5,1.3-1.8,3-1.6c5.6,0.7,11.3,1.3,16.9,1.5c2.8,0.1,3.5,0.8,2.3,3.5c-0.7,1.5-1.7,2.9-1.6,4.6c-0.5,1.1-1.1,2.2-1.6,3.3
		c-3.6,4.6-6.8,9.6-10.8,13.9c-6.2,6.6-13.4,11.9-21.2,16.5c-1.1,0.5-2.3,0.9-3.4,1.4c-11.1,3.5-22.4,5.2-34,3.3
		c-12.3-2-22.9-7.3-31.1-16.9c-4.6-5.4-7.2-11.8-9.9-18.2c-0.3-1.3-0.6-2.6-0.9-4c-0.2-1.1-0.4-2.2-0.6-3.2
		c-2.2-11.4-1.7-22.8,0.7-34.1c3.5-16.1,10.1-30.8,21.1-43.1c12.6-14,28.5-21.2,47.3-21.9c1.1,0,2.3,0,3.4,0
		C569.1,189.6,570.4,189.6,571.7,189.6z M575.2,248.7c7.1,0.6,14.3,0.1,21.4,0.3c1.8,0.1,1.6-1.2,1.7-2.3c0.3-8.6-0.4-17.2-5-24.8
		c-4.1-6.9-9.8-12.1-18.2-13.2c-1-0.8-2.2-0.6-3.3-0.8c-4.7-1.4-9.5-0.7-14.1,0.5c-20.8,5.5-30.6,21.1-36.5,40.4
		c17.1,0,33.8,0,50.5,0C572.9,248.7,574,248.7,575.2,248.7z"/>
	<path class="st0" d="M575.1,534.6c-1.1,0-2.3,0-3.4,0c-0.9,0-1.8-0.1-2.7-0.1c-6.5,0-6.4,0-5-6.5c1.3-5.8,2.4-11.7,3.6-17.6
		c-5.2,5-10.3,9.8-15.9,14c-12.9,9.9-27.1,15.2-43.5,12c-12.5-2.5-21.2-9.7-25-22.2c-1.9-6.2-0.6-12.4-0.2-18.5
		c0.3-0.2,0.5-0.4,0.4-0.8c0-0.4,0-0.8,0-1.3c0.2-1.4,0.4-2.8,0.7-4.1c0.5-2.3,1-4.5,1.5-6.8c5.6-27.4,11.2-54.8,16.9-82.2
		c0.2-0.9,0.1-2.3,1.8-2.3c7.2,0,14.4,0,21.7,0c-0.5,2.4-0.9,4.3-1.3,6.3c-4.6,22.1-9.4,44.1-13.8,66.2c-1.3,6.3-3.1,12.4-3.5,18.9
		c-0.2,1.4-0.5,2.7-0.7,4.1c-1.4,2.3-0.8,4.8-1,7.2c-0.4,7.4,2,14.8,11.4,17c5.4,1.3,10.9,1.2,16.1-0.2
		c13.8-3.5,24.3-11.6,31.3-24.1c0.8-1.4,1.6-2.7,2.4-4.1c2.3-3.9,4.3-8,5-12.6c0.3-0.2,0.5-0.4,0.3-0.8c0.1-0.7,0.2-1.3,0.3-2
		c1.7-3.7,2.2-7.6,3.2-11.5c2.3-8.2,3.7-16.6,5.5-24.9c2.7-12.5,5.4-25.1,7.9-37.7c0.3-1.6,0.8-1.9,2.3-1.9c6.3,0.1,12.5,0.1,18.8,0
		c2.1-0.1,2.1,0.9,1.8,2.4c-5.5,26-11,51.9-16.5,77.9c-0.8,3.7-1.4,7.4-2.1,11.1c-0.3,1.4-0.5,2.7-0.8,4.1c-1.6,7-3.2,13.9-4.7,20.9
		c-1.2,5.8-2.3,11.7-3.5,17.5c-0.4,1.8-1.1,2.9-3.3,2.6C579.2,534.3,577.2,534.5,575.1,534.6z"/>
	<path class="st0" d="M630.2,489.4c2.3-7.8,3.6-15.9,5.3-23.9c4.6-21.7,9-43.5,13.6-65.3c0.2-0.9,0.2-2.2,1.9-2.2
		c6.2,0.1,12.5,0,18.8,0c-1.9,9.2-3.7,18-5.5,26.9c0.2,0.1,0.3,0.1,0.5,0.2c2.8-3.6,5.5-7.4,8.4-10.9c6.2-7.5,13-14.1,22.4-17.5
		c8.8-3.1,17.2-1.5,25.4,2.5c1.3,0.7,1.2,1.2,0.7,2.2c-2.7,5.9-5.3,11.9-7.9,17.9c-0.4,1-0.5,1.9-2,1c-11.3-6.7-21.2-3.1-30.7,4.2
		c-10.8,8.3-16.4,20-20.6,32.4c-5.3,15.6-7.9,31.9-11.4,48c-1.9,8.8-3.7,17.7-5.5,26.6c-0.4,1.8-1,3-3.4,2.8
		c-5.4-0.3-10.7-0.2-16.1,0c-2.6,0.1-2.9-0.9-2.4-3.1c2.7-12.3,5.3-24.6,7.9-36.9c0.1-0.3,0-0.7-0.1-1
		C629.7,492.1,630,490.8,630.2,489.4z"/>
	<path class="st0" d="M678.5,219.5c5.2-6.3,9.9-12.8,15.8-18.3c5.5-5.1,11.6-9.3,19.1-10.9c7.8-1.6,14.9,0.1,21.9,3.6
		c1.1,0.6,1.1,1.1,0.6,2.1c-2.7,6.1-5.4,12.2-8,18.3c-0.4,0.9-0.6,1.5-1.9,0.8c-11.7-7-21.8-2.9-31.4,4.8
		c-11.1,8.9-16.5,21.2-20.7,34.3c-5.2,16.1-7.7,32.9-11.4,49.4c-1.7,7.8-3.2,15.6-4.8,23.4c-0.3,1.4-0.8,2.3-2.6,2.2
		c-5.8-0.2-11.6-0.1-17.5,0c-2,0-2.2-0.7-1.8-2.4c7.8-36.7,15.5-73.4,23.2-110.1c1.5-6.9,2.8-13.9,4.2-20.8c0.4-2.1,1-3.4,3.8-3.3
		c4.9,0.3,9.8,0.1,14.8,0.1c1.8,0,2.5,0,2,2.4C681.7,203,680.2,211.3,678.5,219.5z"/>
	<path class="st1" d="M458.4,95.3c2.8-3.8,3.9-8.4,5.8-12.6c7.6-17.7,14.3-35.9,23.6-52.8c1.8-3.3,4-6.5,7-8.9
		c3.6-2.8,6.3-2.5,9.2,1.1c6.1,7.6,7.9,16.3,6.2,25.7c-2.7,15.2-8.6,29.5-14.2,43.8c-0.4,1.1-1.1,2.2-1,3.5c-0.9,0.8-1.2,1.8-1,3
		c-1.2,0.5-1.3,1.7-1.7,2.6c-2.8,6.9-5.8,13.7-8.4,20.6c-2.9,7.5-5.6,15-8.4,22.7c1.6,0.3,2.4-0.4,3.3-0.8c8.5-4,17.2-7.8,26.1-10.8
		c7.5-2.5,15-5,23-4.5c6.7,0.4,11.2,3.9,13.5,10.1c2.6,7,2.6,14.3,1.9,21.4c-0.9,8.3-4.9,14.5-14,16.4c-4.3,0.9-8.8,1.2-12.9,2.8
		c-22.8,8.9-44.2,20.3-65.4,32.4c-1.2,0.7-1.6,1.8-2,2.9c-4.5,13.2-9.2,26.3-13.5,39.6c-4,12.4-7.9,24.9-11.1,37.6
		c-0.6,1.4-1,2.9-1,4.5c-0.9,1.3-1.2,2.8-1.6,4.3c-7.5,27-14.3,54.2-20.4,81.6c-3.5,15.5-6.6,31.1-9.1,46.9c-1.3,8-2.5,16-3.4,24
		c-1.3,11.9-2.7,23.7-2.4,35.6c0.2,2.6-0.6,5.2,0.4,7.7c0.2,4.6,1.1,9,2.9,13.2c3.2,7.7,9.9,10.2,17,5.7c8.1-5.2,13.2-13,17.4-21.5
		c0.9-1.2,2-2.2,2.1-3.8c1.2-0.6,1.5-1.9,2-3c13-25.8,23.7-52.6,33.4-79.8c2.6-7.3,4.6-14.9,8.9-21.5c1.6-2.5,3.7-4.7,6.9-4.6
		c3.5,0.1,5.3,2.8,6.9,5.6c0.3,0.6,0.5,1.2,0.7,1.9c2.5,6.6,1,13.2-0.4,19.7c-3.6,16-9.4,31.3-15.4,46.6
		c-4.5,11.5-9.3,22.8-13.9,34.2c-0.6,1.5-1.2,3-1.8,4.5c-5.3,10.5-9.9,21.4-15.6,31.6c-8.2,14.6-16.6,29.1-29.6,40.2
		c-8.5,7.3-17.8,11.9-29.2,6.7c-1.5-0.9-2.9-1.7-4.4-2.6c-0.2-0.5-0.4-1.1-0.7-1.5c-7.5-7.4-11.7-16.7-14.7-26.5
		c-2.6-8.6-3.4-17.6-4.1-26.5c-0.5-5.9-0.4-11.9-0.6-17.9c0.9-0.4,0.5-1.1,0.3-1.7c0-0.5-0.1-1.1-0.1-1.6c0-1.3,0-2.6,0.1-3.9
		c0.5-9.3,0.8-18.7,1.7-28c1.4-14,3-28,5.1-42c2.4-15.6,5.4-31.2,8.6-46.7c1.4-7,3.6-13.9,4.3-21.1c1.8-5,2.8-10.2,3.9-15.5
		c0.2-0.4,0.6-0.7,0.7-1.1c1.8-6.8,3.8-13.6,5.4-20.5c1.5-6.3,4.1-12.4,4.7-18.9c1-0.8,0.9-1.8,0.8-2.9c0.7-0.6,1-1.4,1.2-2.3
		c4.6-16.5,9.4-33,13.9-49.5c0.6-2.2,2.6-5,1.1-6.5c-1.2-1.2-3.9,1-5.9,1.7c-9.1,3.3-15.2,0-19.9-6.2c-0.4-0.6-0.6-1.5-1.6-1.5h-0.1
		c0.4-0.6,0.2-1-0.3-1.3c-4.6-9.9-4.4-19.9,0.2-29.8c3.3-6.1,8.7-9,15.3-10.6c11.8-2.8,23.3-6.4,33.8-12.8c1.9-1.2,3.1-2.6,3.8-4.7
		c6-18.7,12.9-37,20-55.3c2.1-5.4,4.9-10.7,6.1-16.4C458.3,97.2,458.5,96.3,458.4,95.3z"/>
	<path class="st0" d="M297.7,292c2-8.9,4-17.9,5.9-26.8c3.5-16.7,6.8-33.4,10.4-50c0.5-2.3-0.2-2.4-2-2.4c-6,0-12.1,0-18.3,0
		c1.1-5.5,2.2-10.7,3.2-16c0.3-1.7,1.3-1.5,2.4-1.5c5.5,0,11,0,16.4,0c1.6,0,2.3-0.2,2.8-2.2c2.5-11.1,4.1-22.4,7.9-33.2
		c4.1-11.7,12.6-17.3,24.5-19.2c7.9-1.3,15.5,0.3,23.3,0.7c1.1,0.2,2.3,0.4,3.4,0.6c1,1,2.3,0.8,3.4,0.9c2.8,0.4,3.7,1.4,2.8,4.5
		c-1.4,4.6-2,9.5-2.9,14.2c-0.2,1.3-0.5,2.1-2,1.9c-1.6-0.4-3.2-0.7-4.8-1.1c-4.4-1.3-8.9-1.6-13.5-1.6c-7.9,0.1-11.5,2.7-14,10.2
		c-2.3,6.9-3.3,14.2-5,21.3c-0.6,2.3-0.1,2.9,2.2,2.8c6.9-0.1,13.9,0,20.8,0c1.2,0,2.6-0.3,2.2,1.8c-1,4.5-1.9,9.1-2.9,13.6
		c-0.3,1.7-1.1,2.2-2.9,2.2c-6.6-0.1-13.2,0.1-19.8-0.1c-3.1-0.1-4.1,1-4.6,3.9c-3.8,18.8-7.9,37.6-11.7,56.5
		c-1.3,6.3-3.1,12.5-3.6,18.9c-0.3,1.3-0.6,2.6-0.9,3.9c-0.2,0.4-0.4,0.8-0.5,1.2c-2.3,10.7-4.5,21.3-6.7,32
		c-0.3,1.4-0.5,2.5-2.3,2.5c-7-0.1-14,0-21.1,0c0.8-3.9,1.6-7.4,2.3-11c1.7-8.2,3.3-16.4,4.9-24.6
		C297.2,294.7,297.5,293.3,297.7,292z"/>
	<path class="st0" d="M69.3,489.4c0-9.9-0.4-19.9,2.1-29.6c6.4-24.9,17.8-46.4,42.3-57.8c17.3-8.1,35.1-8.5,52.9-1.2
		c3.7,1.5,6.8,4.2,10.3,6.2c0.9,1,1.8,2.1,3.1,2.6c0.3,0.6,0.6,1.2,1,1.7c9.9,10.8,13.7,23.8,14,38.2c0.2,7.2-0.4,14.3-1.3,21.3
		c-0.2,1.8-1,1.9-2.4,1.9c-3.5,0-6.9,0-10.4,0.1c-1.4,0-2.7,0-4.1,0c-27.4,0-54.7-0.1-82.1-0.1c-1.5,0-1.7,0.5-2,1.8
		c-1,5-0.4,10,0.4,14.9c0.9,1.7-0.1,3.8,1.1,5.5c-0.1,1.8,0.8,3.5,1.4,5.1c5.1,12.7,15.6,19.7,27.6,19.5c12.6-0.3,23.1-6,31.5-15.2
		c3-3.3,6.1-6.8,7.3-11.4c1.1-0.9,1.3-2.2,1.9-3.4c3.4,0,6.7,0.1,10.1,0.1c3.5,0.4,7,1.1,10.4,1.2c2.5,0.1,2.4,1,1.7,2.8
		c-2.1,4.2-4.2,8.5-6.2,12.7c-1.3,1.6-2.5,3.2-3.8,4.7c-8.2,9.4-17,18.1-29,22.5c-20.4,7.4-40.2,6.8-58.2-6.5
		c-10.3-7.6-15.5-18.6-18.2-30.9c-0.2-0.9-0.3-1.7-0.8-2.5C69.7,492.1,69.5,490.8,69.3,489.4z M134.9,455.2c11.7,0,23.5-0.1,35.2,0
		c2.4,0,3.6-0.3,3.4-3.2c-0.3-4.1,0.1-8.2-0.7-12.3c-1.5-7.6-4.5-14.5-10.8-19.4c-12.1-9.4-25.3-8.7-38.2-2.4
		c-14.2,6.9-21.6,19.5-26.4,34c-0.8,2.6-0.6,3.2,2.2,3.2C111.4,455.1,123.1,455.2,134.9,455.2z"/>
	<path class="st0" d="M13.4,489.4c4.1-19.4,8.2-38.7,12.3-58.1c4.4-20.9,8.7-41.8,13.1-62.7c1.2-6,2.6-11.9,3.7-17.9
		c0.5-2.7,1.2-4,4.3-3.8c5.5,0.3,11,0.1,16.4,0.1c2.1,0,3-0.2,2.4,2.8c-5.6,26.3-10.9,52.6-16.4,78.9c-4.2,20-8.4,40-12.7,60
		c0,0.2,0,0.4,0.1,0.7c-0.2,1.4-0.5,2.7-0.7,4.1c-2.1,7-3.1,14.2-4.7,21.3c-1.4,6.1-2.7,12.3-3.9,18.5c-0.3,1.6-0.8,1.9-2.3,1.9
		c-6.3-0.1-12.5-0.1-18.8,0c-1.7,0-2.2-0.5-1.9-2.1c2.5-12,5.1-24,7.6-36c0.2-1.2,0.3-2.4,0.5-3.6C12.6,492.1,13,490.7,13.4,489.4z"
		/>
	<path class="st0" d="M327.3,489.4c-0.5,1.3-1,2.7-1.5,4c-3.8,8.1-7.7,16.2-13.6,23.1c-9.7,11.3-21.6,18.5-36.5,20.6
		c-12.5,1.8-24.6,0.8-35.7-5.9c-13-7.8-19.8-19.6-22.3-34.2c-0.2-1.2-0.5-2.4-0.8-3.6c-0.1-1.3-0.3-2.7-0.4-4c0.2-5,0.1-10,0.6-14.9
		c1.7-19.6,7.1-37.9,19.1-53.7c10.4-13.7,24.3-21.9,41.5-24.2c12.9-1.7,25.5-1.3,37.2,5.4c12.1,7,18.9,17.5,20.4,31.4
		c0.8,7.5,0.6,7.5-7.2,7.7c-4.2,0.1-8.5,0.4-12.7,0.8c-1.9,0.2-2.2-0.5-2.3-2.2c-0.5-16.2-12.9-26-28.9-25
		c-16.1,1-26.6,9.9-33.4,23.5c-7.9,16-11.6,33.2-10.7,51.2c0.2,1.4,0.4,2.7,0.6,4.1c-0.4,2.9,0.6,5.5,1.4,8.1
		c4.2,13,16.4,21.3,30.3,18.1c14.2-3.2,22.9-12.7,28.8-25.5c0.7-1.6,1.3-3.2,2-4.8c1-5.2,5-3.6,8.1-3.3c4.3,0.4,8.6,1,12.9,1.3
		C325.3,487.6,327.2,487.2,327.3,489.4z"/>
</g>
</svg>
